Coordinates
version=1
nRows=22
nColumns=26
inDegrees=yes

Units are S.I. units (second, meters, Newtons, ...)
Angles are in degrees.

endheader
time	pelvis_tilt	pelvis_list	pelvis_rotation	pelvis_tx	pelvis_ty	pelvis_tz	hip_flexion_r	hip_adduction_r	hip_rotation_r	knee_angle_r	knee_angle_r_beta	ankle_angle_r	subtalar_angle_r	mtp_angle_r	hip_flexion_l	hip_adduction_l	hip_rotation_l	knee_angle_l	knee_angle_l_beta	ankle_angle_l	subtalar_angle_l	mtp_angle_l	lumbar_extension	lumbar_bending	lumbar_rotation
    201.72870750	    -17.63637473	     -2.53835103	     11.86767356	      0.03759394	      0.87648909	      0.18165310	     55.95858278	     -5.94196828	     -6.64254238	     86.59755046	     86.59755046	     -5.56015441	    -20.53140606	      0.00000000	      4.21990451	      1.97088049	     16.11093807	     21.61863284	     21.61863284	      4.28835307	     -3.85360820	      0.00000000	      1.26458859	     -0.13962245	    -13.05763286
    201.73870750	    -17.62738910	     -3.89118188	     11.22616070	      0.04201460	      0.88440824	      0.18238894	     55.56510058	     -4.07211054	     -7.36894375	     79.79264450	     79.79264450	     -4.45622281	    -20.03891936	      0.00000000	      0.87792616	     -0.51647681	     13.93713404	     17.46030370	     17.46030370	     -2.63351967	     -3.14588147	      0.00000000	      2.32126814	      1.58557072	    -13.73217620
    201.74870750	    -17.80334368	     -4.96418524	     10.46483679	      0.04645607	      0.89158562	      0.18316703	     55.03709535	     -2.34792082	     -7.67826719	     72.59193301	     72.59193301	     -3.42521107	    -18.80400471	      0.00000000	     -2.15982508	     -2.50268174	     11.39155147	     13.51469622	     13.51469622	     -9.65528247	     -1.87978004	      0.00000000	      3.50705978	      2.96553542	    -14.22073006
    201.75870750	    -17.99417428	     -5.74270613	      9.84852493	      0.05069796	      0.89804917	      0.18372663	     54.18070948	     -0.91208410	     -7.64391163	     65.05549170	     65.05549170	     -2.44601559	    -16.92564463	      0.00000000	     -4.79999553	     -3.96901825	      9.02259720	     10.38922654	     10.38922654	    -16.12325117	     -0.66214303	      0.00000000	      4.56120921	      3.98508875	    -14.86570606
    201.76870750	    -18.29854822	     -6.24717268	      9.66816098	      0.05422167	      0.90356169	      0.18386881	     53.14532787	      0.03640150	     -7.42134967	     57.21147639	     57.21147639	     -1.62011145	    -14.90878103	      0.00000000	     -6.50146115	     -4.90359823	      7.55260316	      9.00335145	      9.00335145	    -21.59793166	     -0.30072953	      0.00000000	      5.57245348	      4.58366834	    -15.80946701
    201.77870750	    -19.29233072	     -6.21501354	      9.73473518	      0.05643284	      0.90726897	      0.18392861	     52.70216341	      0.26980198	     -6.74315910	     49.36213582	     49.36213582	     -1.06939576	    -12.76428868	      0.00000000	     -6.43177788	     -4.96400801	      7.18404387	     10.06737559	     10.06737559	    -25.19920438	     -0.51742304	      0.00000000	      7.13568355	      4.36727115	    -16.65696723
    201.78870750	    -20.18380980	     -6.19087045	     10.19713186	      0.05782361	      0.90999234	      0.18346671	     51.92192613	      0.18434787	     -6.25028322	     41.33795004	     41.33795004	     -0.64985948	    -10.48405442	      0.00000000	     -5.74150458	     -4.84340993	      8.57191160	     12.97178234	     12.97178234	    -26.20835457	     -1.58861978	      0.00000000	      8.46296438	      4.19113906	    -17.39989989
    201.79870750	    -20.90649368	     -5.67044845	     11.01265065	      0.05862608	      0.91182779	      0.18250880	     50.87051872	     -0.64826538	     -5.91222782	     33.62223905	     33.62223905	     -0.11546489	     -8.17456580	      0.00000000	     -4.84836889	     -4.02363030	     11.14190012	     17.09092983	     17.09092983	    -25.10379389	     -2.20195512	      0.00000000	      9.38009506	      3.36708654	    -18.30689916
    201.80870750	    -20.74708044	     -4.91145696	     11.76597009	      0.05997143	      0.91355239	      0.18141532	     48.87862944	     -1.53239655	     -5.83305436	     26.50300508	     26.50300508	      0.73917126	     -5.55256594	      0.00000000	     -4.85827792	     -2.97009382	     13.39250837	     21.62628053	     21.62628053	    -23.45089455	     -2.55394790	      0.00000000	      9.15113959	      2.49505156	    -18.87737460
    201.81870750	    -19.89589470	     -4.15010910	     12.30492515	      0.06175320	      0.91490103	      0.18050789	     46.29911124	     -2.19602069	     -6.19724599	     20.32205553	     20.32205553	      1.97919697	     -2.54916676	      0.00000000	     -5.42882721	     -2.08319833	     14.49514863	     26.58484202	     26.58484202	    -21.81910788	     -2.26986910	      0.00000000	      8.08033396	      1.84265259	    -19.20802889
    201.82870750	    -18.74007162	     -3.53277379	     12.42851397	      0.06355870	      0.91541259	      0.18020036	     43.71617640	     -2.43125539	     -6.71280900	     15.35266081	     15.35266081	      3.06406634	      0.58898970	      0.00000000	     -6.03659953	     -1.43785237	     14.49543530	     32.04595493	     32.04595493	    -20.45168820	     -1.86644512	      0.00000000	      6.64973144	      1.52764767	    -19.13323844
    201.83870750	    -17.73170847	     -3.09687131	     12.07185148	      0.06493539	      0.91465817	      0.18037731	     41.68480471	     -2.28691010	     -6.95533819	     11.69663098	     11.69663098	      3.45961532	      3.47172944	      0.00000000	     -6.21975611	     -0.85266999	     13.98375749	     37.95836043	     37.95836043	    -19.32680276	     -1.86204321	      0.00000000	      5.41261062	      1.53615331	    -18.55588116
    201.84870750	    -16.96309604	     -2.93432533	     11.18220237	      0.06595304	      0.91253264	      0.18126549	     40.25595208	     -1.63535905	     -6.83978858	      9.29906617	      9.29906617	      3.92603083	      5.99802895	      0.00000000	     -5.87041313	     -0.42325476	     12.95257763	     44.23251998	     44.23251998	    -18.17914692	     -1.96724879	      0.00000000	      4.51298023	      1.89350213	    -17.41335113
    201.85870750	    -16.34220711	     -2.97479918	     10.01063716	      0.06659816	      0.90914529	      0.18255852	     39.19595887	     -0.67136297	     -6.76003136	      7.95662291	      7.95662291	      4.33627078	      7.84882926	      0.00000000	     -5.09023818	     -0.18290431	     11.58347667	     50.77082653	     50.77082653	    -17.01667641	     -2.15501750	      0.00000000	      3.77534625	      2.49078167	    -15.78010568
    201.86870750	    -15.53984814	     -2.94237342	      8.78247400	      0.06714328	      0.90509182	      0.18363712	     38.13867437	      0.24300923	     -6.85018741	      7.79259658	      7.79259658	      4.80364444	      8.77329885	      0.00000000	     -4.48545718	      0.18325764	     10.33554820	     57.16960494	     57.16960494	    -15.88288981	     -2.94833896	      0.00000000	      2.75542276	      3.03888637	    -13.92754811
    201.87870750	    -14.65230117	     -2.90204702	      7.66966378	      0.06744701	      0.90028001	      0.18415161	     37.21847293	      0.98505890	     -7.09074767	      8.83967914	      8.83967914	      5.16590905	      8.75782123	      0.00000000	     -3.83477631	      0.48220884	      9.05310333	     63.47635223	     63.47635223	    -14.85650471	     -3.73699240	      0.00000000	      1.60872618	      3.60091025	    -12.04694709
    201.88870750	    -14.01246402	     -2.88080766	      6.52025055	      0.06725786	      0.89424543	      0.18463724	     36.55572993	      1.67778009	     -6.54466200	     10.48504201	     10.48504201	      5.42224675	      8.13248176	      0.00000000	     -2.74544827	      0.60529844	      7.50553699	     69.74442915	     69.74442915	    -13.87627260	     -4.44076783	      0.00000000	      0.72205274	      4.12973640	    -10.06613666
    201.89870750	    -13.98687678	     -2.84927417	      5.40015958	      0.06629719	      0.88663699	      0.18539598	     36.54301398	      2.33696436	     -4.77576044	     12.62968890	     12.62968890	      5.12653145	      6.12370893	      0.00000000	     -0.76544434	      0.54872736	      5.82896316	     76.05511789	     76.05511789	    -12.78204785	     -5.13122343	      0.00000000	      0.55347122	      4.51634736	     -8.07019642
    201.90870750	    -13.93257346	     -3.11916288	      4.38314722	      0.06557637	      0.87841156	      0.18645741	     36.68759265	      3.15822313	     -4.05713431	     15.60601676	     15.60601676	      2.37740455	      3.18222698	      0.00000000	      1.26212337	     -0.19367225	      4.08135757	     82.11011133	     82.11011133	    -11.86379774	     -5.89666237	      0.00000000	      0.42706802	      5.20185583	     -6.09770580
    201.91870750	    -14.22152175	     -3.75315627	      3.43923346	      0.06438981	      0.86922467	      0.18845184	     37.18385707	      4.55892069	     -3.10110768	     19.04629842	     19.04629842	     -0.11538312	     -1.34467389	      0.00000000	      3.90648484	     -1.69872744	      2.49249035	     88.16845631	     88.16845631	    -10.75284474	     -6.26027258	      0.00000000	      0.60729540	      6.11526825	     -4.22035749
    201.92870750	    -14.98599618	     -4.95585315	      2.29269242	      0.06152102	      0.85950310	      0.19176488	     38.86008055	      7.06116555	     -1.96682543	     24.36231101	     24.36231101	      3.01717495	     -4.91676431	      0.00000000	      7.48305099	     -4.21573951	      1.08496941	     94.40081861	     94.40081861	     -9.47065155	     -6.59032529	      0.00000000	      0.99263455	      7.51273656	     -2.11462683
    201.93870750	    -16.24884970	     -5.43519495	      1.45928242	      0.05672942	      0.84941463	      0.19397280	     42.58429605	      8.39635066	     -2.21143977	     32.60287499	     32.60287499	      7.12207813	     -7.39347414	      0.00000000	     12.12283035	     -5.71356016	      0.48265258	    100.57554471	    100.57554471	     -8.22556202	     -6.90418019	      0.00000000	      1.59897486	      8.06576471	     -0.55717247
